<?xml version="1.0" standalone="no"?>
<!DOCTYPE svg PUBLIC "-//W3C//DTD SVG 20010904//EN"
 "http://www.w3.org/TR/2001/REC-SVG-20010904/DTD/svg10.dtd">
<svg version="1.0" xmlns="http://www.w3.org/2000/svg"
 width="1259.000000pt" height="1362.000000pt" viewBox="0 0 1259.000000 1362.000000"
 preserveAspectRatio="xMidYMid meet">

<g transform="translate(0.000000,1362.000000) scale(0.100000,-0.100000)"
fill="#000000" stroke="none">
<path d="M131 13443 c51 -54 1335 -1389 2853 -2967 l2761 -2868 5 -3610 5
-3609 1700 1877 c935 1032 1710 1888 1721 1903 l22 26 -364 378 c-200 208
-364 380 -364 382 0 2 657 729 1460 1616 1152 1272 1457 1615 1449 1626 -8 9
-13 398 -17 1391 l-5 1377 517 269 c284 147 516 272 516 276 0 5 -234 239
-520 521 -449 442 -520 517 -520 541 0 23 -4 28 -18 24 -9 -3 -460 -111 -1002
-241 -542 -129 -993 -239 -1003 -243 -10 -4 -175 -279 -367 -611 -192 -333
-353 -608 -358 -613 -4 -4 -628 591 -1387 1322 l-1380 1330 -2899 0 -2898 0
93 -97z m5619 -2845 l0 -2823 -24 25 c-13 14 -1232 1282 -2710 2817 -1477
1536 -2686 2795 -2686 2798 0 3 1220 5 2710 5 l2710 0 0 -2822z m2830 126
c1449 -1396 2635 -2541 2635 -2545 0 -14 -2827 -3130 -2836 -3127 -5 2 -571
588 -1259 1302 l-1250 1299 0 2841 0 2840 38 -36 c20 -19 1223 -1178 2672
-2574z m2651 949 c1 -423 4 -1346 8 -2053 3 -707 5 -1286 5 -1288 -1 -2 -571
544 -1265 1214 -695 669 -1270 1222 -1277 1229 -12 11 47 118 338 621 l352
609 896 216 c494 119 907 217 920 218 l22 1 1 -767z m959 -133 c0 -7 -815
-430 -829 -430 -8 0 -11 174 -11 631 l0 631 420 -413 c231 -228 420 -416 420
-419z m-4739 -5705 c866 -900 1574 -1640 1574 -1645 0 -5 -700 -782 -1555
-1726 -855 -944 -1565 -1728 -1577 -1743 l-22 -26 -1 3388 c0 1863 2 3387 4
3387 2 0 712 -736 1577 -1635z"/>
</g>
</svg>
