<?xml version="1.0" standalone="no"?>
<!DOCTYPE svg PUBLIC "-//W3C//DTD SVG 20010904//EN"
 "http://www.w3.org/TR/2001/REC-SVG-20010904/DTD/svg10.dtd">
<svg version="1.0" xmlns="http://www.w3.org/2000/svg"
 width="2247.000000pt" height="1362.000000pt" viewBox="0 0 2247.000000 1362.000000"
 preserveAspectRatio="xMidYMid meet">

<g transform="translate(0.000000,1362.000000) scale(0.100000,-0.100000)"
fill="#000000" stroke="none">
<path d="M52 13531 c2 -5 1283 -1339 2848 -2965 l2845 -2956 5 -3609 5 -3610
1715 1894 c943 1042 1716 1899 1718 1905 2 5 -159 179 -358 385 -211 219 -360
380 -356 388 3 6 660 734 1460 1617 1194 1316 1453 1607 1443 1619 -17 20 -30
2751 -13 2767 6 6 239 130 519 275 279 145 507 266 507 269 0 3 -234 236 -520
518 -402 397 -520 519 -520 538 0 16 -6 24 -17 24 -12 0 -1653 -391 -1979
-471 l-41 -11 -354 -613 c-195 -338 -357 -614 -360 -615 -4 0 -627 598 -1385
1329 l-1379 1330 -2893 0 c-1657 1 -2892 -3 -2890 -8z m5698 -2933 l0 -2823
-59 60 c-32 33 -1209 1257 -2616 2720 -1407 1463 -2603 2706 -2659 2763 l-101
102 2718 0 2717 0 0 -2822z m2797 162 c1467 -1414 2669 -2574 2671 -2578 2 -6
-2124 -2360 -2788 -3089 l-48 -53 -1256 1305 -1256 1305 0 2840 c0 1562 2
2840 5 2840 2 0 1205 -1157 2672 -2570z m2696 -1278 c3 -634 2 -1152 -2 -1150
-11 4 -2551 2452 -2551 2458 0 3 157 277 350 610 l349 605 918 221 918 221 6
-906 c4 -498 9 -1425 12 -2059z m827 2184 c68 -69 121 -128 118 -131 -7 -7
-828 -435 -834 -435 -2 0 -4 286 -4 636 l0 636 298 -290 c163 -160 353 -347
422 -416z m-4511 -5940 c809 -841 1471 -1532 1471 -1536 0 -5 -3071 -3402
-3141 -3475 -19 -19 -19 34 -19 3370 l0 3390 109 -110 c60 -61 771 -798 1580
-1639z"/>
<path d="M12086 7364 c-14 -14 -16 -80 -16 -579 0 -499 2 -565 16 -579 22 -23
416 -23 491 -1 60 18 132 79 171 143 l27 47 3 378 3 378 -25 54 c-32 70 -94
129 -162 155 -49 18 -78 20 -274 20 -185 0 -221 -2 -234 -16z m484 -123 c19
-10 49 -37 65 -60 l30 -43 3 -314 c4 -402 -5 -446 -98 -494 -35 -18 -60 -20
-210 -20 l-170 0 0 475 0 475 173 0 c149 0 177 -3 207 -19z"/>
<path d="M13692 7368 c-9 -9 -12 -153 -12 -585 l0 -573 25 -12 c18 -8 35 -9
53 -2 l27 9 3 574 c1 415 -1 578 -9 587 -14 17 -71 18 -87 2z"/>
<path d="M14886 7364 c-67 -21 -156 -110 -179 -178 -22 -63 -22 -149 0 -211
28 -83 84 -127 303 -239 107 -54 206 -108 218 -120 35 -31 53 -71 54 -119 2
-116 -70 -187 -189 -187 -80 0 -142 19 -252 75 -89 45 -96 47 -120 34 -41 -23
-40 -69 1 -104 79 -67 248 -124 369 -125 118 0 217 56 277 158 24 42 27 56 27
142 0 165 -37 206 -307 341 -101 50 -198 102 -216 116 -44 33 -62 72 -62 134
0 68 31 123 88 156 40 24 50 25 135 20 57 -3 125 -15 176 -31 77 -24 86 -25
108 -11 32 22 31 67 -3 94 -73 57 -323 89 -428 55z"/>
<path d="M16016 7364 c-24 -23 -20 -70 6 -88 18 -13 51 -16 150 -16 l128 0 0
-525 0 -525 25 -12 c18 -8 35 -9 53 -2 l27 9 3 528 2 527 128 0 c144 0 172 10
172 60 0 60 0 60 -355 60 -281 0 -326 -2 -339 -16z"/>
<path d="M17326 7365 c-14 -15 -16 -71 -16 -580 0 -499 2 -565 16 -579 19 -20
54 -20 80 -2 18 13 19 30 22 240 l3 226 127 0 127 0 110 -221 c61 -121 118
-229 128 -240 35 -37 97 -12 97 39 0 12 -47 116 -104 231 l-105 209 59 36
c106 65 156 174 148 321 -7 140 -77 243 -206 303 -55 26 -64 27 -263 30 -181
3 -208 1 -223 -13z m439 -124 c86 -39 136 -118 137 -215 0 -102 -35 -163 -123
-210 -50 -28 -61 -29 -201 -34 l-148 -5 0 242 0 241 148 0 c121 0 154 -4 187
-19z"/>
<path d="M18932 7368 c-9 -9 -12 -153 -12 -585 l0 -573 25 -12 c18 -8 35 -9
53 -2 l27 9 3 574 c1 415 -1 578 -9 587 -14 17 -71 18 -87 2z"/>
<path d="M19946 7364 c-24 -23 -20 -70 6 -88 18 -13 51 -16 150 -16 l128 0 0
-525 0 -525 25 -12 c18 -8 35 -9 53 -2 l27 9 3 528 2 527 128 0 c144 0 172 10
172 60 0 60 0 60 -355 60 -281 0 -326 -2 -339 -16z"/>
<path d="M21483 7362 c-97 -35 -162 -93 -214 -192 -24 -45 -24 -46 -24 -380
l0 -335 27 -57 c33 -71 100 -138 176 -175 50 -24 68 -28 147 -28 76 0 99 4
145 26 78 37 131 87 171 161 l34 63 0 340 0 340 -28 56 c-34 69 -100 132 -175
167 -76 34 -185 40 -259 14z m212 -121 c49 -22 90 -62 119 -116 20 -38 21 -52
21 -340 0 -289 -1 -302 -22 -340 -60 -112 -174 -160 -294 -123 -52 15 -117 73
-140 122 -17 37 -19 71 -19 339 0 328 2 341 63 406 18 18 50 42 72 52 53 24
147 25 200 0z"/>
<path d="M13330 5005 c0 -34 1 -35 38 -35 52 0 183 -48 269 -98 50 -29 100
-72 167 -144 l97 -103 531 -920 c292 -506 533 -923 534 -926 2 -4 -203 -366
-455 -805 -366 -638 -470 -812 -516 -861 -62 -68 -175 -158 -241 -191 -67 -34
-180 -61 -306 -74 l-118 -11 0 -29 0 -28 625 0 625 0 0 29 c0 27 -4 30 -42 36
-72 12 -192 63 -237 101 -59 51 -84 105 -78 168 4 45 54 138 416 771 226 396
415 721 419 722 7 2 771 -1309 852 -1464 38 -71 45 -94 44 -139 0 -91 -63
-145 -184 -159 -58 -7 -60 -8 -60 -36 l0 -29 625 0 625 0 0 29 c0 25 -5 30
-32 36 -73 16 -227 70 -293 103 -49 24 -92 57 -144 111 -72 72 -100 120 -623
1025 -301 521 -548 953 -548 959 0 6 207 371 461 812 481 838 530 913 633 982
88 60 359 133 492 133 l54 0 0 35 0 35 -622 -2 -623 -3 0 -30 0 -30 74 -7 c97
-8 152 -31 196 -79 55 -61 78 -122 73 -194 -5 -58 -18 -83 -419 -777 -228
-395 -416 -718 -419 -718 -12 0 -837 1457 -857 1514 -26 71 -29 145 -8 185 19
37 72 61 153 69 66 7 67 7 67 37 l0 30 -622 3 -623 2 0 -35z"/>
<path d="M17600 5010 c0 -16 3 -30 8 -30 37 -1 151 -34 199 -59 84 -42 119
-74 140 -129 17 -45 18 -131 18 -1882 0 -1509 -2 -1842 -13 -1873 -28 -79
-135 -150 -281 -185 -66 -16 -71 -19 -71 -44 l0 -28 625 0 625 0 0 29 c0 27
-3 28 -52 34 -64 6 -148 37 -210 76 -36 23 -53 44 -79 97 l-34 69 0 1815 c0
1749 1 1817 19 1869 37 107 140 181 282 204 71 11 75 13 72 37 l-3 25 -622 3
-623 2 0 -30z"/>
<path d="M19470 5010 c0 -16 3 -30 8 -30 37 -1 151 -34 199 -59 84 -42 119
-74 140 -129 17 -45 18 -131 18 -1882 0 -1509 -2 -1842 -13 -1873 -28 -79
-135 -150 -281 -185 -66 -16 -71 -19 -71 -44 l0 -28 625 0 625 0 0 29 c0 27
-3 28 -52 34 -64 6 -148 37 -210 76 -36 23 -53 44 -79 97 l-34 69 0 1815 c0
1749 1 1817 19 1869 37 107 140 181 282 204 71 11 75 13 72 37 l-3 25 -622 3
-623 2 0 -30z"/>
</g>
</svg>
